# Rhino

mtllib 03.mtl
usemtl Plaster (2)
v -8.28048038482666 1.57684969902039 2.80611205101013
v -8.28048038482666 21.2903823852539 2.80611205101013
v -3.35209679603577 1.57684969902039 2.80611205101013
v -3.35209679603577 21.2903823852539 2.80611205101013
v -5.81628847122192 1.57684969902039 2.80611205101013
v -3.35209679603577 11.4336166381836 2.80611205101013
v -5.81628847122192 21.2903823852539 2.80611205101013
v -8.28048038482666 11.4336166381836 2.80611205101013
v -3.35209679603577 1.57684969902039 2.80611205101013
v -3.35209679603577 21.2903823852539 2.80611205101013
v -3.35209679603577 1.57684969902039 -2.80611205101013
v -3.35209679603577 21.2903823852539 -2.80611205101013
v -3.35209679603577 11.4336166381836 2.80611205101013
v -3.35209679603577 1.57684969902039 0
v -3.35209679603577 21.2903823852539 0
v -3.35209679603577 11.4336166381836 -2.80611205101013
v -3.35209679603577 1.57684969902039 -2.80611205101013
v -3.35209679603577 21.2903823852539 -2.80611205101013
v -8.28048038482666 1.57684969902039 -2.80611205101013
v -8.28048038482666 21.2903823852539 -2.80611205101013
v -3.35209679603577 11.4336166381836 -2.80611205101013
v -5.81628847122192 1.57684969902039 -2.80611205101013
v -5.81628847122192 21.2903823852539 -2.80611205101013
v -8.28048038482666 11.4336166381836 -2.80611205101013
v -8.28048038482666 1.57684969902039 -2.80611205101013
v -8.28048038482666 21.2903823852539 -2.80611205101013
v -8.28048038482666 1.57684969902039 2.80611205101013
v -8.28048038482666 21.2903823852539 2.80611205101013
v -8.28048038482666 11.4336166381836 2.80611205101013
v -8.28048038482666 11.4336166381836 -2.80611205101013
v -8.28048038482666 1.57684969902039 0
v -8.28048038482666 21.2903823852539 0
v -8.28048038482666 1.57684969902039 2.80611205101013
v -8.28048038482666 1.57684969902039 -2.80611205101013
v -3.35209679603577 1.57684969902039 2.80611205101013
v -3.35209679603577 1.57684969902039 -2.80611205101013
v -5.81628847122192 1.57684969902039 2.80611205101013
v -3.35209679603577 1.57684969902039 0
v -5.81628847122192 1.57684969902039 -2.80611205101013
v -8.28048038482666 1.57684969902039 0
v -8.28048038482666 21.2903823852539 2.80611205101013
v -8.28048038482666 21.2903823852539 -2.80611205101013
v -3.35209679603577 21.2903823852539 2.80611205101013
v -3.35209679603577 21.2903823852539 -2.80611205101013
v -5.81628847122192 21.2903823852539 2.80611205101013
v -3.35209679603577 21.2903823852539 0
v -5.81628847122192 21.2903823852539 -2.80611205101013
v -8.28048038482666 21.2903823852539 0
vt 0.194599643349648 0.221601441502571
vt 0.194599643349648 0.99853515625
vt 0.387734442949295 0.221601441502571
vt 0.387734442949295 0.99853515625
vt 0.291167050600052 0.221601441502571
vt 0.387734442949295 0.610068321228027
vt 0.291167050600052 0.99853515625
vt 0.194599643349648 0.610068321228027
vt 0.610800743103027 0
vt 0.610800743103027 0.77839857339859
vt 0.830937325954437 0
vt 0.830937325954437 0.77839857339859
vt 0.610800743103027 0.389199286699295
vt 0.72086900472641 0
vt 0.72086900472641 0.77839857339859
vt 0.830937325954437 0.389199286699295
vt 0 0.221601441502571
vt 0 0.99853515625
vt 0.193134799599648 0.221601441502571
vt 0.193134799599648 0.99853515625
vt 0 0.610068321228027
vt 0.0965673997998238 0.221601441502571
vt 0.0965673997998238 0.99853515625
vt 0.193134799599648 0.610068321228027
vt 0.389199286699295 0
vt 0.389199286699295 0.77839857339859
vt 0.609335899353027 0
vt 0.609335899353027 0.77839857339859
vt 0.609335899353027 0.389199286699295
vt 0.389199286699295 0.389199286699295
vt 0.499267578125 0
vt 0.499267578125 0.77839857339859
vt 0.194599643349648 0
vt 0.194599643349648 0.220136597752571
vt 0.387734442949295 0
vt 0.387734442949295 0.220136597752571
vt 0.291167050600052 0
vt 0.387734442949295 0.110068298876286
vt 0.291167050600052 0.220136597752571
vt 0.194599643349648 0.110068298876286
vt 0 0
vt 0 0.220136597752571
vt 0.193134799599648 0
vt 0.193134799599648 0.220136597752571
vt 0.0965673997998238 0
vt 0.193134799599648 0.110068298876286
vt 0.0965673997998238 0.220136597752571
vt 0 0.110068298876286
vn 0 0 1
vn 0 0 1
vn 0 0 1
vn 0 0 1
vn 0 0 1
vn 0 0 1
vn 0 0 1
vn 0 0 1
vn 1 0 0
vn 1 0 0
vn 1 0 0
vn 1 0 0
vn 1 0 0
vn 1 0 0
vn 1 0 0
vn 1 0 0
vn 0 0 -1
vn 0 0 -1
vn 0 0 -1
vn 0 0 -1
vn 0 0 -1
vn 0 0 -1
vn 0 0 -1
vn 0 0 -1
vn -1 0 0
vn -1 0 0
vn -1 0 0
vn -1 0 0
vn -1 0 0
vn -1 0 0
vn -1 0 0
vn -1 0 0
vn 0 -1 0
vn 0 -1 0
vn 0 -1 0
vn 0 -1 0
vn 0 -1 0
vn 0 -1 0
vn 0 -1 0
vn 0 -1 0
vn 0 1 0
vn 0 1 0
vn 0 1 0
vn 0 1 0
vn 0 1 0
vn 0 1 0
vn 0 1 0
vn 0 1 0
f 8/8/8 1/1/1 5/5/5 3/3/3 6/6/6 4/4/4 7/7/7 2/2/2
f 13/13/13 9/9/9 14/14/14 11/11/11 16/16/16 12/12/12 15/15/15 \
10/10/10
f 21/21/21 17/17/17 22/22/22 19/19/19 24/24/24 20/20/20 23/23/23 \
18/18/18
f 30/30/30 25/25/25 31/31/31 27/27/27 29/29/29 28/28/28 32/32/32 \
26/26/26
f 37/37/37 33/33/33 40/40/40 34/34/34 39/39/39 36/36/36 38/38/38 \
35/35/35
f 47/47/47 42/42/42 48/48/48 41/41/41 45/45/45 43/43/43 46/46/46 \
44/44/44
